<svg width="772" height="332" viewBox="0 0 772 332" fill="none" xmlns="http://www.w3.org/2000/svg">
<g clip-path="url(#clip0_677_1901)">
<path d="M21.6024 291.379C21.605 288.027 22.9386 284.813 25.3101 282.443C27.6816 280.073 30.897 278.742 34.2496 278.742C37.6022 278.742 40.8176 280.073 43.1891 282.443C45.5606 284.813 46.8942 288.027 46.8968 291.379" fill="#F2F2F2"/>
<path d="M34.2496 291.379C34.159 291.379 34.072 291.343 34.0079 291.279C33.9438 291.215 33.9078 291.128 33.9078 291.038V284.372C33.9078 284.282 33.9438 284.195 34.0079 284.13C34.072 284.066 34.159 284.03 34.2496 284.03C34.3403 284.03 34.4272 284.066 34.4913 284.13C34.5554 284.195 34.5914 284.282 34.5914 284.372V291.038C34.5914 291.128 34.5554 291.215 34.4913 291.279C34.4272 291.343 34.3403 291.379 34.2496 291.379Z" fill="#CCCCCC"/>
<path d="M34.2494 289.089C34.1678 289.089 34.0888 289.06 34.0269 289.007L29.9252 285.486C29.8907 285.457 29.8623 285.421 29.8416 285.381C29.8209 285.341 29.8084 285.297 29.8048 285.252C29.8012 285.207 29.8065 285.162 29.8205 285.119C29.8344 285.076 29.8567 285.037 29.8861 285.002C29.9156 284.968 29.9515 284.94 29.9918 284.92C30.0321 284.899 30.076 284.887 30.1211 284.884C30.1661 284.881 30.2113 284.886 30.2541 284.901C30.2969 284.915 30.3365 284.938 30.3704 284.967L34.4722 288.488C34.5252 288.533 34.563 288.594 34.5805 288.662C34.598 288.729 34.5944 288.801 34.5701 288.866C34.5459 288.932 34.5021 288.988 34.4448 289.028C34.3874 289.068 34.3193 289.089 34.2494 289.089Z" fill="#CCCCCC"/>
<path d="M60.5694 291.379C60.572 288.027 61.9056 284.813 64.2771 282.443C66.6486 280.073 69.864 278.742 73.2166 278.742C76.5692 278.742 79.7846 280.073 82.1561 282.443C84.5276 284.813 85.8612 288.027 85.8638 291.379" fill="#F2F2F2"/>
<path d="M73.2166 291.379C73.126 291.379 73.039 291.343 72.9749 291.279C72.9108 291.215 72.8748 291.128 72.8748 291.038V284.372C72.8748 284.282 72.9108 284.195 72.9749 284.13C73.039 284.066 73.126 284.03 73.2166 284.03C73.3073 284.03 73.3942 284.066 73.4583 284.13C73.5224 284.195 73.5584 284.282 73.5584 284.372V291.038C73.5584 291.128 73.5224 291.215 73.4583 291.279C73.3942 291.343 73.3073 291.379 73.2166 291.379Z" fill="#CCCCCC"/>
<path d="M73.2164 289.089C73.1348 289.089 73.0558 289.06 72.9939 289.007L68.8921 285.486C68.8576 285.457 68.8291 285.421 68.8084 285.381C68.7877 285.341 68.7752 285.297 68.7715 285.252C68.7679 285.207 68.7732 285.162 68.7872 285.119C68.8011 285.076 68.8235 285.036 68.8529 285.002C68.8823 284.968 68.9182 284.94 68.9586 284.919C68.9989 284.899 69.0429 284.887 69.0879 284.884C69.133 284.88 69.1782 284.886 69.2211 284.901C69.2639 284.915 69.3034 284.938 69.3374 284.967L73.4392 288.488C73.4922 288.533 73.53 288.594 73.5475 288.662C73.565 288.729 73.5614 288.801 73.5371 288.866C73.5128 288.932 73.4691 288.988 73.4117 289.028C73.3544 289.068 73.2863 289.089 73.2164 289.089Z" fill="#CCCCCC"/>
<path d="M578.226 49.5922C591.654 49.5922 602.539 38.7065 602.539 25.2783C602.539 11.8501 591.654 0.964355 578.226 0.964355C564.797 0.964355 553.912 11.8501 553.912 25.2783C553.912 38.7065 564.797 49.5922 578.226 49.5922Z" fill="#F2F2F2"/>
<path d="M80.1588 318.519C92.3662 318.519 102.262 316.21 102.262 313.361C102.262 310.513 92.3662 308.204 80.1588 308.204C67.9513 308.204 58.0552 310.513 58.0552 313.361C58.0552 316.21 67.9513 318.519 80.1588 318.519Z" fill="#F2F2F2"/>
<path d="M68.8754 101.648C74.6724 83.5467 88.8275 69.5082 105.614 61.1585C125.532 51.2517 148.419 50.13 170.046 53.9857C193.391 58.148 215.211 67.7433 236.331 78.2145C257.047 88.4853 277.429 99.3305 298.973 107.818C341.984 124.739 387.572 134.182 433.765 135.739C475.343 137.126 519.797 132.57 555.397 109.202C588.017 87.7892 608.773 52.465 619.584 15.6433C620.968 10.9293 622.198 6.17477 623.275 1.37968C623.589 -0.0054128 621.458 -0.596798 621.143 0.792087C612.423 39.2432 593.828 77.2461 562.055 101.757C527.691 128.266 482.59 134.395 440.384 133.693C393.686 132.878 347.484 123.962 303.835 107.343C281.737 98.93 260.883 88.0057 239.764 77.4591C219.109 67.1442 197.874 57.4885 175.161 52.7312C154.421 48.3871 132.215 48.1224 112.219 55.8525C95.7532 62.2177 80.74 73.5632 71.954 89.0834C69.8117 92.8869 68.0659 96.9005 66.744 101.061C66.3092 102.419 68.4426 103 68.8754 101.648Z" fill="#F2F2F2"/>
<path d="M384.442 270.9C384.638 270.9 384.825 270.823 384.963 270.685C385.101 270.546 385.179 270.359 385.179 270.164C385.179 269.968 385.101 269.781 384.963 269.643C384.825 269.504 384.638 269.427 384.442 269.427H377.443V266.48H384.442C384.638 266.48 384.825 266.402 384.963 266.264C385.101 266.126 385.179 265.938 385.179 265.743C385.179 265.547 385.101 265.36 384.963 265.222C384.825 265.084 384.638 265.006 384.442 265.006H324.763C324.567 265.006 324.38 265.084 324.242 265.222C324.104 265.36 324.026 265.547 324.026 265.743C324.026 265.938 324.104 266.126 324.242 266.264C324.38 266.402 324.567 266.48 324.763 266.48H331.762V269.427H324.763C324.567 269.427 324.38 269.504 324.242 269.643C324.104 269.781 324.026 269.968 324.026 270.164C324.026 270.359 324.104 270.546 324.242 270.685C324.38 270.823 324.567 270.9 324.763 270.9H331.762V273.848H324.763C324.567 273.848 324.38 273.925 324.242 274.063C324.104 274.202 324.026 274.389 324.026 274.584C324.026 274.78 324.104 274.967 324.242 275.105C324.38 275.244 324.567 275.321 324.763 275.321H331.762V278.268H325.499C325.109 278.268 324.734 278.424 324.458 278.7C324.181 278.976 324.026 279.351 324.026 279.742C324.026 280.133 324.181 280.507 324.458 280.784C324.734 281.06 325.109 281.215 325.499 281.215H331.461C331.418 281.333 331.395 281.458 331.394 281.584V291.899C331.394 292.192 331.51 292.473 331.717 292.68C331.925 292.888 332.206 293.004 332.499 293.004C332.792 293.004 333.073 292.888 333.28 292.68C333.488 292.473 333.604 292.192 333.604 291.899V281.584C333.603 281.458 333.58 281.333 333.537 281.215H375.669C375.625 281.333 375.602 281.458 375.601 281.584V291.899C375.601 292.192 375.717 292.473 375.925 292.68C376.132 292.888 376.413 293.004 376.706 293.004C376.999 293.004 377.28 292.888 377.488 292.68C377.695 292.473 377.811 292.192 377.811 291.899V281.584C377.81 281.458 377.787 281.333 377.744 281.215H383.706C384.096 281.215 384.471 281.06 384.748 280.784C385.024 280.507 385.179 280.133 385.179 279.742C385.179 279.351 385.024 278.976 384.748 278.7C384.471 278.424 384.096 278.268 383.706 278.268H377.443V275.321H384.442C384.638 275.321 384.825 275.244 384.963 275.105C385.101 274.967 385.179 274.78 385.179 274.584C385.179 274.389 385.101 274.202 384.963 274.063C384.825 273.925 384.638 273.848 384.442 273.848H377.443V270.9H384.442ZM333.236 266.48H375.969V269.427H333.236V266.48ZM375.969 278.268H333.236V275.321H375.969V278.268ZM375.969 273.848H333.236V270.9H375.969V273.848Z" fill="#3F3D56"/>
<path d="M159.732 239.976C159.732 226.964 149.176 196.086 136.154 196.086C123.133 196.086 112.577 226.964 112.577 239.976C112.577 246.229 115.061 252.226 119.483 256.648C123.904 261.069 129.901 263.553 136.154 263.553C142.408 263.553 148.404 261.069 152.826 256.648C157.248 252.226 159.732 246.229 159.732 239.976Z" fill="#E6E6E6"/>
<path d="M153.837 239.976C153.837 226.964 143.281 196.086 130.26 196.086C117.239 196.086 106.683 226.964 106.683 239.976C106.683 246.229 109.167 252.226 113.589 256.648C118.01 261.069 124.007 263.553 130.26 263.553C136.513 263.553 142.51 261.069 146.932 256.648C151.353 252.226 153.837 246.229 153.837 239.976Z" fill="#F2F2F2"/>
<path d="M130.997 292.694C130.802 292.694 130.614 292.616 130.476 292.478C130.338 292.34 130.26 292.152 130.26 291.957V226.279C130.26 226.084 130.338 225.897 130.476 225.758C130.614 225.62 130.802 225.543 130.997 225.543C131.192 225.543 131.38 225.62 131.518 225.758C131.656 225.897 131.734 226.084 131.734 226.279V291.957C131.734 292.152 131.656 292.34 131.518 292.478C131.38 292.616 131.192 292.694 130.997 292.694Z" fill="#CCCCCC"/>
<path d="M130.997 237.046C130.851 237.046 130.709 237.003 130.588 236.922C130.467 236.841 130.372 236.726 130.316 236.591C130.261 236.457 130.246 236.309 130.274 236.166C130.303 236.023 130.373 235.892 130.476 235.789L140.111 226.153C140.25 226.015 140.437 225.937 140.632 225.937C140.828 225.937 141.015 226.015 141.153 226.153C141.291 226.291 141.369 226.478 141.369 226.674C141.369 226.869 141.291 227.057 141.153 227.195L131.518 236.83C131.45 236.899 131.368 236.953 131.279 236.99C131.19 237.027 131.094 237.046 130.997 237.046Z" fill="#CCCCCC"/>
<path d="M402.134 292.694C401.938 292.694 401.751 292.616 401.613 292.478C401.475 292.34 401.397 292.152 401.397 291.957V226.279C401.397 226.084 401.475 225.897 401.613 225.758C401.751 225.62 401.938 225.543 402.134 225.543C402.329 225.543 402.517 225.62 402.655 225.758C402.793 225.897 402.871 226.084 402.871 226.279V291.957C402.871 292.152 402.793 292.34 402.655 292.478C402.517 292.616 402.329 292.694 402.134 292.694Z" fill="#3F3D56"/>
<path d="M480.97 239.976C480.97 226.964 470.414 196.086 457.393 196.086C444.371 196.086 433.816 226.964 433.816 239.976C433.816 246.229 436.3 252.226 440.721 256.648C445.143 261.069 451.14 263.553 457.393 263.553C463.646 263.553 469.643 261.069 474.064 256.648C478.486 252.226 480.97 246.229 480.97 239.976Z" fill="#E6E6E6"/>
<path d="M475.076 239.976C475.076 226.964 464.52 196.086 451.498 196.086C438.477 196.086 427.921 226.964 427.921 239.976C427.921 246.229 430.405 252.226 434.827 256.648C439.249 261.069 445.245 263.553 451.498 263.553C457.752 263.553 463.748 261.069 468.17 256.648C472.592 252.226 475.076 246.229 475.076 239.976Z" fill="#F2F2F2"/>
<path d="M452.235 292.694C452.04 292.694 451.852 292.616 451.714 292.478C451.576 292.34 451.498 292.152 451.498 291.957V226.279C451.498 226.084 451.576 225.897 451.714 225.758C451.852 225.62 452.04 225.543 452.235 225.543C452.431 225.543 452.618 225.62 452.756 225.758C452.894 225.897 452.972 226.084 452.972 226.279V291.957C452.972 292.152 452.894 292.34 452.756 292.478C452.618 292.616 452.431 292.694 452.235 292.694Z" fill="#CCCCCC"/>
<path d="M452.235 237.046C452.09 237.046 451.947 237.003 451.826 236.922C451.705 236.841 451.61 236.726 451.555 236.591C451.499 236.457 451.484 236.309 451.513 236.166C451.541 236.023 451.611 235.892 451.714 235.789L461.35 226.153C461.488 226.015 461.675 225.937 461.871 225.937C462.066 225.937 462.253 226.015 462.392 226.153C462.53 226.291 462.607 226.478 462.607 226.674C462.607 226.869 462.53 227.057 462.392 227.195L452.756 236.83C452.688 236.899 452.607 236.953 452.517 236.99C452.428 237.027 452.332 237.046 452.235 237.046Z" fill="#CCCCCC"/>
<path d="M209.096 38.172H197.308C196.429 38.171 195.586 37.8214 194.964 37.1998C194.343 36.5783 193.993 35.7355 193.992 34.8565V7.59544C193.993 6.71641 194.343 5.87366 194.964 5.25209C195.586 4.63051 196.429 4.28088 197.308 4.27991H209.096C209.975 4.28088 210.818 4.63051 211.44 5.25209C212.061 5.87366 212.411 6.71641 212.412 7.59544V34.8565C212.411 35.7355 212.061 36.5783 211.44 37.1998C210.818 37.8214 209.975 38.171 209.096 38.172Z" fill="#E6E6E6"/>
<path d="M255.514 292.363H195.097C193.437 292.361 191.845 291.701 190.671 290.527C189.497 289.352 188.836 287.761 188.835 286.1V42.2243C188.836 40.564 189.497 38.9721 190.671 37.798C191.845 36.624 193.437 35.9635 195.097 35.9617H255.514C257.174 35.9635 258.766 36.6239 259.94 37.798C261.114 38.9721 261.774 40.5639 261.776 42.2243V286.1C261.774 287.761 261.114 289.352 259.94 290.527C258.766 291.701 257.174 292.361 255.514 292.363Z" fill="#E6E6E6"/>
<path d="M219.411 292.363H158.995C157.334 292.361 155.743 291.701 154.568 290.527C153.394 289.352 152.734 287.761 152.732 286.1V42.2243C152.734 40.564 153.394 38.9721 154.568 37.798C155.743 36.624 157.334 35.9635 158.995 35.9617H219.411C221.072 35.9635 222.663 36.624 223.837 37.798C225.012 38.9721 225.672 40.564 225.674 42.2243V286.1C225.672 287.761 225.012 289.352 223.837 290.527C222.663 291.701 221.072 292.361 219.411 292.363Z" fill="#F2F2F2"/>
<path d="M198.044 38.172H186.256C185.377 38.171 184.534 37.8214 183.912 37.1998C183.291 36.5783 182.941 35.7355 182.94 34.8565V7.59544C182.941 6.71641 183.291 5.87366 183.912 5.25209C184.534 4.63051 185.377 4.28088 186.256 4.27991H198.044C198.923 4.28088 199.766 4.63051 200.388 5.25209C201.009 5.87366 201.359 6.71641 201.36 7.59544V34.8565C201.359 35.7355 201.009 36.5783 200.388 37.1998C199.766 37.8214 198.923 38.171 198.044 38.172Z" fill="#F2F2F2"/>
<path d="M182.572 91.2205H168.573C168.085 91.2199 167.616 91.0257 167.271 90.6804C166.926 90.3351 166.732 89.8669 166.731 89.3785V68.0118C166.732 67.5234 166.926 67.0552 167.271 66.7099C167.616 66.3646 168.085 66.1704 168.573 66.1698H182.572C183.06 66.1704 183.528 66.3646 183.874 66.7099C184.219 67.0552 184.413 67.5234 184.414 68.0118V89.3785C184.413 89.8669 184.219 90.3351 183.874 90.6804C183.528 91.0257 183.06 91.2199 182.572 91.2205Z" fill="white"/>
<path d="M209.833 91.2205H195.834C195.346 91.2199 194.877 91.0257 194.532 90.6804C194.187 90.3351 193.993 89.8669 193.992 89.3785V68.0118C193.993 67.5234 194.187 67.0552 194.532 66.7099C194.877 66.3646 195.346 66.1704 195.834 66.1698H209.833C210.321 66.1704 210.789 66.3646 211.135 66.7099C211.48 67.0552 211.674 67.5234 211.675 68.0118V89.3785C211.674 89.8669 211.48 90.3351 211.135 90.6804C210.789 91.0257 210.321 91.2199 209.833 91.2205Z" fill="white"/>
<path d="M182.572 130.27H168.573C168.085 130.27 167.616 130.075 167.271 129.73C166.926 129.385 166.732 128.917 166.731 128.428V107.061C166.732 106.573 166.926 106.105 167.271 105.76C167.616 105.414 168.085 105.22 168.573 105.219H182.572C183.06 105.22 183.528 105.414 183.874 105.76C184.219 106.105 184.413 106.573 184.414 107.061V128.428C184.413 128.917 184.219 129.385 183.874 129.73C183.528 130.075 183.06 130.27 182.572 130.27Z" fill="white"/>
<path d="M209.833 130.27H195.834C195.346 130.27 194.877 130.075 194.532 129.73C194.187 129.385 193.993 128.917 193.992 128.428V107.061C193.993 106.573 194.187 106.105 194.532 105.76C194.877 105.414 195.346 105.22 195.834 105.219H209.833C210.321 105.22 210.789 105.414 211.135 105.76C211.48 106.105 211.674 106.573 211.675 107.061V128.428C211.674 128.917 211.48 129.385 211.135 129.73C210.789 130.075 210.321 130.27 209.833 130.27Z" fill="white"/>
<path d="M182.572 169.32H168.573C168.085 169.319 167.616 169.125 167.271 168.78C166.926 168.434 166.732 167.966 166.731 167.478V146.111C166.732 145.623 166.926 145.155 167.271 144.809C167.616 144.464 168.085 144.27 168.573 144.269H182.572C183.06 144.27 183.528 144.464 183.874 144.809C184.219 145.155 184.413 145.623 184.414 146.111V167.478C184.413 167.966 184.219 168.434 183.874 168.78C183.528 169.125 183.06 169.319 182.572 169.32Z" fill="white"/>
<path d="M209.833 169.32H195.834C195.346 169.319 194.877 169.125 194.532 168.78C194.187 168.434 193.993 167.966 193.992 167.478V146.111C193.993 145.623 194.187 145.155 194.532 144.809C194.877 144.464 195.346 144.27 195.834 144.269H209.833C210.321 144.27 210.789 144.464 211.135 144.809C211.48 145.155 211.674 145.623 211.675 146.111V167.478C211.674 167.966 211.48 168.434 211.135 168.78C210.789 169.125 210.321 169.319 209.833 169.32Z" fill="white"/>
<path d="M182.572 208.369H168.573C168.085 208.369 167.616 208.175 167.271 207.829C166.926 207.484 166.732 207.016 166.731 206.527V185.161C166.732 184.672 166.926 184.204 167.271 183.859C167.616 183.513 168.085 183.319 168.573 183.319H182.572C183.06 183.319 183.528 183.513 183.874 183.859C184.219 184.204 184.413 184.672 184.414 185.161V206.527C184.413 207.016 184.219 207.484 183.874 207.829C183.528 208.175 183.06 208.369 182.572 208.369Z" fill="white"/>
<path d="M209.833 208.369H195.834C195.346 208.369 194.877 208.175 194.532 207.829C194.187 207.484 193.993 207.016 193.992 206.527V185.161C193.993 184.672 194.187 184.204 194.532 183.859C194.877 183.513 195.346 183.319 195.834 183.319H209.833C210.321 183.319 210.789 183.513 211.135 183.859C211.48 184.204 211.674 184.672 211.675 185.161V206.527C211.674 207.016 211.48 207.484 211.135 207.829C210.789 208.175 210.321 208.369 209.833 208.369Z" fill="white"/>
<path d="M182.572 247.419H168.573C168.085 247.418 167.616 247.224 167.271 246.879C166.926 246.533 166.732 246.065 166.731 245.577V224.21C166.732 223.722 166.926 223.254 167.271 222.908C167.616 222.563 168.085 222.369 168.573 222.368H182.572C183.06 222.369 183.528 222.563 183.874 222.908C184.219 223.254 184.413 223.722 184.414 224.21V245.577C184.413 246.065 184.219 246.533 183.874 246.879C183.528 247.224 183.06 247.418 182.572 247.419Z" fill="white"/>
<path d="M209.833 247.419H195.834C195.346 247.418 194.877 247.224 194.532 246.879C194.187 246.533 193.993 246.065 193.992 245.577V224.21C193.993 223.722 194.187 223.254 194.532 222.908C194.877 222.563 195.346 222.369 195.834 222.368H209.833C210.321 222.369 210.789 222.563 211.135 222.908C211.48 223.254 211.674 223.722 211.675 224.21V245.577C211.674 246.065 211.48 246.533 211.135 246.879C210.789 247.224 210.321 247.418 209.833 247.419Z" fill="white"/>
<path d="M513.388 167.109H501.6C500.721 167.108 499.878 166.759 499.257 166.137C498.635 165.516 498.285 164.673 498.284 163.794V148.321C498.285 147.442 498.635 146.6 499.257 145.978C499.878 145.356 500.721 145.007 501.6 145.006H513.388C514.267 145.007 515.11 145.356 515.732 145.978C516.353 146.6 516.703 147.442 516.704 148.321V163.794C516.703 164.673 516.353 165.516 515.732 166.137C515.11 166.759 514.267 167.108 513.388 167.109Z" fill="#E6E6E6"/>
<path d="M612.854 293.1H552.438C550.778 293.098 549.186 292.437 548.012 291.263C546.838 290.089 546.177 288.497 546.175 286.837V169.688C546.177 168.028 546.838 166.436 548.012 165.262C549.186 164.088 550.778 163.427 552.438 163.426H612.854C614.515 163.427 616.107 164.088 617.281 165.262C618.455 166.436 619.115 168.028 619.117 169.688V286.837C619.115 288.497 618.455 290.089 617.281 291.263C616.107 292.437 614.515 293.098 612.854 293.1Z" fill="#E6E6E6"/>
<path d="M576.752 293.1H472.128C470.468 293.098 468.876 292.437 467.702 291.263C466.528 290.089 465.868 288.497 465.866 286.837V169.688C465.868 168.028 466.528 166.436 467.702 165.262C468.876 164.088 470.468 163.427 472.128 163.426H576.752C578.412 163.427 580.004 164.088 581.178 165.262C582.352 166.436 583.013 168.028 583.015 169.688V286.837C583.013 288.497 582.352 290.089 581.178 291.263C580.004 292.437 578.412 293.098 576.752 293.1Z" fill="#F2F2F2"/>
<path d="M502.337 167.109H490.548C489.669 167.108 488.826 166.759 488.205 166.137C487.583 165.516 487.234 164.673 487.233 163.794V148.321C487.234 147.442 487.583 146.6 488.205 145.978C488.826 145.356 489.669 145.007 490.548 145.006H502.337C503.216 145.007 504.058 145.356 504.68 145.978C505.302 146.6 505.651 147.442 505.652 148.321V163.794C505.651 164.673 505.302 165.516 504.68 166.137C504.058 166.759 503.216 167.108 502.337 167.109Z" fill="#F2F2F2"/>
<path d="M517.809 221.263H503.81C503.322 221.262 502.854 221.068 502.508 220.723C502.163 220.378 501.969 219.909 501.968 219.421V198.054C501.969 197.566 502.163 197.098 502.508 196.752C502.854 196.407 503.322 196.213 503.81 196.212H517.809C518.297 196.213 518.766 196.407 519.111 196.752C519.456 197.098 519.651 197.566 519.651 198.054V219.421C519.651 219.909 519.456 220.378 519.111 220.723C518.766 221.068 518.297 221.262 517.809 221.263Z" fill="white"/>
<path d="M545.07 221.263H531.071C530.583 221.262 530.115 221.068 529.769 220.723C529.424 220.378 529.23 219.909 529.229 219.421V198.054C529.23 197.566 529.424 197.098 529.769 196.752C530.115 196.407 530.583 196.213 531.071 196.212H545.07C545.559 196.213 546.027 196.407 546.372 196.752C546.717 197.098 546.912 197.566 546.912 198.054V219.421C546.912 219.909 546.717 220.378 546.372 220.723C546.027 221.068 545.559 221.262 545.07 221.263Z" fill="white"/>
<path d="M517.809 260.313H503.81C503.322 260.312 502.854 260.118 502.508 259.773C502.163 259.427 501.969 258.959 501.968 258.471V237.104C501.969 236.616 502.163 236.147 502.508 235.802C502.854 235.457 503.322 235.263 503.81 235.262H517.809C518.297 235.263 518.766 235.457 519.111 235.802C519.456 236.147 519.651 236.616 519.651 237.104V258.471C519.651 258.959 519.456 259.427 519.111 259.773C518.766 260.118 518.297 260.312 517.809 260.313Z" fill="white"/>
<path d="M545.07 260.313H531.071C530.583 260.312 530.115 260.118 529.769 259.773C529.424 259.427 529.23 258.959 529.229 258.471V237.104C529.23 236.616 529.424 236.147 529.769 235.802C530.115 235.457 530.583 235.263 531.071 235.262H545.07C545.559 235.263 546.027 235.457 546.372 235.802C546.717 236.147 546.912 236.616 546.912 237.104V258.471C546.912 258.959 546.717 259.427 546.372 259.773C546.027 260.118 545.559 260.312 545.07 260.313Z" fill="white"/>
<path d="M771.263 293.468H0.736785C0.541378 293.468 0.353973 293.39 0.215799 293.252C0.0776248 293.114 0 292.927 0 292.731C0 292.536 0.0776248 292.348 0.215799 292.21C0.353973 292.072 0.541378 291.994 0.736785 291.994H771.263C771.458 291.994 771.646 292.072 771.784 292.21C771.922 292.348 772 292.536 772 292.731C772 292.927 771.922 293.114 771.784 293.252C771.646 293.39 771.458 293.468 771.263 293.468Z" fill="#E6E6E6"/>
<path d="M267.302 319.255H198.781C198.586 319.255 198.398 319.178 198.26 319.04C198.122 318.901 198.044 318.714 198.044 318.519C198.044 318.323 198.122 318.136 198.26 317.998C198.398 317.859 198.586 317.782 198.781 317.782H267.302C267.498 317.782 267.685 317.859 267.823 317.998C267.961 318.136 268.039 318.323 268.039 318.519C268.039 318.714 267.961 318.901 267.823 319.04C267.685 319.178 267.498 319.255 267.302 319.255Z" fill="#E6E6E6"/>
<path d="M437.5 319.255H368.979C368.783 319.255 368.596 319.178 368.458 319.04C368.319 318.901 368.242 318.714 368.242 318.519C368.242 318.323 368.319 318.136 368.458 317.998C368.596 317.859 368.783 317.782 368.979 317.782H437.5C437.695 317.782 437.882 317.859 438.021 317.998C438.159 318.136 438.236 318.323 438.236 318.519C438.236 318.714 438.159 318.901 438.021 319.04C437.882 319.178 437.695 319.255 437.5 319.255Z" fill="#E6E6E6"/>
<path d="M607.697 319.255H539.176C538.981 319.255 538.793 319.178 538.655 319.04C538.517 318.901 538.439 318.714 538.439 318.519C538.439 318.323 538.517 318.136 538.655 317.998C538.793 317.859 538.981 317.782 539.176 317.782H607.697C607.892 317.782 608.08 317.859 608.218 317.998C608.356 318.136 608.434 318.323 608.434 318.519C608.434 318.714 608.356 318.901 608.218 319.04C608.08 319.178 607.892 319.255 607.697 319.255Z" fill="#E6E6E6"/>
<path d="M306.352 239.976C306.352 226.964 295.796 196.086 282.775 196.086C269.753 196.086 259.198 226.964 259.198 239.976C259.198 246.229 261.682 252.226 266.103 256.648C270.525 261.069 276.522 263.553 282.775 263.553C289.028 263.553 295.025 261.069 299.446 256.648C303.868 252.226 306.352 246.229 306.352 239.976Z" fill="#E6E6E6"/>
<path d="M300.458 239.976C300.458 226.964 289.902 196.086 276.88 196.086C263.859 196.086 253.303 226.964 253.303 239.976C253.303 246.229 255.787 252.226 260.209 256.648C264.63 261.069 270.627 263.553 276.88 263.553C283.133 263.553 289.13 261.069 293.552 256.648C297.974 252.226 300.458 246.229 300.458 239.976Z" fill="#F2F2F2"/>
<path d="M277.617 292.694C277.422 292.694 277.234 292.616 277.096 292.478C276.958 292.34 276.88 292.152 276.88 291.957V226.279C276.88 226.084 276.958 225.897 277.096 225.758C277.234 225.62 277.422 225.543 277.617 225.543C277.813 225.543 278 225.62 278.138 225.758C278.276 225.897 278.354 226.084 278.354 226.279V291.957C278.354 292.152 278.276 292.34 278.138 292.478C278 292.616 277.813 292.694 277.617 292.694Z" fill="#CCCCCC"/>
<path d="M277.617 237.046C277.471 237.046 277.329 237.003 277.208 236.922C277.087 236.841 276.992 236.726 276.937 236.591C276.881 236.457 276.866 236.309 276.895 236.166C276.923 236.023 276.993 235.892 277.096 235.789L286.732 226.153C286.87 226.015 287.057 225.937 287.253 225.937C287.448 225.937 287.635 226.015 287.774 226.153C287.912 226.291 287.989 226.478 287.989 226.674C287.989 226.869 287.912 227.057 287.774 227.195L278.138 236.83C278.07 236.899 277.989 236.953 277.899 236.99C277.81 237.027 277.714 237.046 277.617 237.046Z" fill="#CCCCCC"/>
<path d="M682.849 239.976C682.849 226.964 672.293 196.086 659.272 196.086C646.251 196.086 635.695 226.964 635.695 239.976C635.695 246.229 638.179 252.226 642.6 256.648C647.022 261.069 653.019 263.553 659.272 263.553C665.525 263.553 671.522 261.069 675.943 256.648C680.365 252.226 682.849 246.229 682.849 239.976Z" fill="#E6E6E6"/>
<path d="M676.955 239.976C676.955 226.964 666.399 196.086 653.378 196.086C640.356 196.086 629.8 226.964 629.8 239.976C629.8 246.229 632.285 252.226 636.706 256.648C641.128 261.069 647.125 263.553 653.378 263.553C659.631 263.553 665.628 261.069 670.049 256.648C674.471 252.226 676.955 246.229 676.955 239.976Z" fill="#F2F2F2"/>
<path d="M654.114 292.694C653.919 292.694 653.732 292.616 653.593 292.478C653.455 292.34 653.378 292.152 653.378 291.957V226.279C653.378 226.084 653.455 225.897 653.593 225.758C653.732 225.62 653.919 225.543 654.114 225.543C654.31 225.543 654.497 225.62 654.635 225.758C654.774 225.897 654.851 226.084 654.851 226.279V291.957C654.851 292.152 654.774 292.34 654.635 292.478C654.497 292.616 654.31 292.694 654.114 292.694Z" fill="#CCCCCC"/>
<path d="M654.114 237.046C653.969 237.046 653.826 237.003 653.705 236.922C653.584 236.841 653.49 236.726 653.434 236.591C653.378 236.457 653.363 236.309 653.392 236.166C653.42 236.023 653.49 235.892 653.593 235.789L663.229 226.153C663.367 226.015 663.554 225.937 663.75 225.937C663.945 225.937 664.133 226.015 664.271 226.153C664.409 226.291 664.487 226.478 664.487 226.674C664.487 226.869 664.409 227.057 664.271 227.195L654.635 236.83C654.567 236.899 654.486 236.953 654.396 236.99C654.307 237.027 654.211 237.046 654.114 237.046Z" fill="#CCCCCC"/>
<path d="M410.238 248.156H394.029C393.541 248.155 393.072 247.961 392.727 247.616C392.382 247.27 392.188 246.802 392.187 246.314V230.104C392.188 229.616 392.382 229.148 392.727 228.802C393.072 228.457 393.541 228.263 394.029 228.262H410.238C410.727 228.263 411.195 228.457 411.54 228.802C411.886 229.148 412.08 229.616 412.08 230.104V246.314C412.08 246.802 411.886 247.27 411.54 247.616C411.195 247.961 410.727 248.155 410.238 248.156Z" fill="#3F3D56"/>
<path d="M567.591 256.049C567.768 256.096 567.932 256.18 568.073 256.298C568.214 256.415 568.327 256.561 568.405 256.727C568.483 256.892 568.524 257.073 568.525 257.256C568.526 257.439 568.486 257.62 568.409 257.786L571.613 260.876L569.356 261.382L566.66 258.37C566.389 258.223 566.182 257.981 566.078 257.691C565.974 257.401 565.979 257.083 566.094 256.796C566.209 256.51 566.424 256.276 566.7 256.138C566.976 256.001 567.293 255.969 567.591 256.049Z" fill="#FFB8B8"/>
<path d="M572.095 264.176L568.143 260.469C568.089 260.418 568.045 260.356 568.015 260.288C567.984 260.219 567.968 260.146 567.967 260.071C567.965 259.996 567.979 259.922 568.006 259.852C568.034 259.783 568.076 259.72 568.128 259.666L568.935 258.849C569.031 258.752 569.159 258.694 569.295 258.684C569.431 258.675 569.566 258.715 569.674 258.798L572.986 261.329L575.052 256.317C575.134 256.12 575.255 255.941 575.409 255.792C575.562 255.643 575.744 255.527 575.944 255.451C576.144 255.375 576.358 255.341 576.571 255.351C576.785 255.361 576.994 255.415 577.186 255.509C577.489 255.656 577.736 255.897 577.89 256.195C578.045 256.494 578.098 256.835 578.042 257.167C577.667 259.446 575.396 262.459 574.075 264.053C573.895 264.27 573.651 264.426 573.379 264.499C573.106 264.572 572.818 264.559 572.553 264.461C572.383 264.398 572.227 264.301 572.095 264.176Z" fill="#039CD4"/>
<path d="M569.878 260.58L566.968 256.36C566.931 256.305 566.917 256.238 566.928 256.173C566.94 256.108 566.978 256.051 567.032 256.013L567.149 255.933C567.176 255.914 567.206 255.901 567.238 255.894C567.27 255.887 567.303 255.887 567.335 255.893C567.367 255.899 567.398 255.911 567.426 255.929C567.453 255.946 567.477 255.969 567.495 255.996L570.405 260.217C570.423 260.243 570.437 260.274 570.443 260.306C570.45 260.338 570.451 260.371 570.445 260.403C570.439 260.435 570.427 260.466 570.409 260.493C570.391 260.521 570.368 260.544 570.341 260.563L570.224 260.644C570.17 260.681 570.103 260.695 570.038 260.683C569.973 260.671 569.915 260.634 569.878 260.58Z" fill="white"/>
<path d="M569.064 260.611L566.65 257.109C566.547 256.959 566.507 256.775 566.54 256.596C566.573 256.417 566.675 256.259 566.825 256.156L567.071 255.986L570.263 260.617L570.017 260.786C569.868 260.889 569.683 260.929 569.505 260.896C569.326 260.863 569.168 260.761 569.064 260.611Z" fill="#3F3D56"/>
<path d="M569.357 290.841L567.84 290.667L568.041 284.761L570.032 284.991L569.357 290.841Z" fill="#FFB8B8"/>
<path d="M569.574 292.357L564.683 291.792L564.69 291.73C564.719 291.48 564.797 291.238 564.919 291.019C565.041 290.799 565.206 290.605 565.403 290.449C565.6 290.292 565.826 290.176 566.068 290.107C566.31 290.038 566.563 290.017 566.813 290.046L569.801 290.391L569.574 292.357Z" fill="#2F2E41"/>
<path d="M586.995 289.72L585.536 290.171L583.104 284.758L585.256 284.093L586.995 289.72Z" fill="#FFB8B8"/>
<path d="M587.804 291.02L583.1 292.473L583.081 292.413C583.007 292.173 582.981 291.92 583.004 291.669C583.028 291.419 583.1 291.175 583.218 290.953C583.335 290.73 583.495 290.533 583.689 290.372C583.883 290.212 584.106 290.091 584.347 290.017L587.22 289.129L587.804 291.02Z" fill="#2F2E41"/>
<path d="M567.663 289.48C567.509 289.433 567.38 289.327 567.302 289.186C567.225 289.044 567.205 288.878 567.248 288.723L568.162 278.198C568.204 277.717 568.355 277.253 568.604 276.84L574.138 267.655L579.091 268.545L579.123 268.558C581.53 270.032 583.667 277.181 585.734 284.094C586.055 285.169 586.387 286.281 586.712 287.343C586.772 287.495 586.771 287.664 586.708 287.815C586.645 287.965 586.526 288.086 586.376 288.15L584.876 288.781C584.734 288.841 584.575 288.846 584.429 288.795C584.283 288.744 584.162 288.641 584.088 288.505L576.379 274.391C576.369 274.374 576.355 274.358 576.339 274.347C576.322 274.336 576.303 274.329 576.283 274.327C576.263 274.324 576.243 274.327 576.224 274.334C576.206 274.341 576.189 274.353 576.176 274.368L571.702 279.431L570.058 289.08L570.051 289.101C569.992 289.239 569.884 289.35 569.749 289.416C569.614 289.481 569.46 289.495 569.315 289.455L567.702 289.486L567.692 289.486L567.663 289.48Z" fill="#2F2E41"/>
<path d="M573.87 268.662L573.839 268.652L573.83 268.62C573.806 268.544 571.543 260.883 573.583 255.999L573.585 255.995C573.644 255.879 575.067 253.145 576.721 252.871L576.765 252.864L577.302 253.868C577.471 254.038 580.38 257.058 579.06 262.25C579.178 262.676 580.785 268.52 579.911 269.394C579.593 269.613 579.206 269.711 578.821 269.667C577.138 269.523 575.477 269.186 573.87 268.662Z" fill="#039CD4"/>
<path d="M576.38 251.913C578.512 251.913 580.241 250.185 580.241 248.053C580.241 245.92 578.512 244.192 576.38 244.192C574.248 244.192 572.519 245.92 572.519 248.053C572.519 250.185 574.248 251.913 576.38 251.913Z" fill="#2F2E41"/>
<path d="M574.846 251.895C576.536 251.895 577.905 250.525 577.905 248.836C577.905 247.147 576.536 245.777 574.846 245.777C573.157 245.777 571.787 247.147 571.787 248.836C571.787 250.525 573.157 251.895 574.846 251.895Z" fill="#FFB8B8"/>
<path d="M576.815 251.808C576.536 251.906 576.194 251.994 575.974 251.788C575.883 251.67 575.829 251.527 575.82 251.378C575.812 251.228 575.848 251.08 575.925 250.952C576.084 250.7 576.212 250.43 576.307 250.148C576.336 249.936 576.309 249.72 576.229 249.521C576.15 249.323 576.02 249.148 575.853 249.015C575.521 248.762 575.146 248.573 574.745 248.457L572.604 247.696C572.047 247.565 571.553 247.245 571.206 246.79C571.027 246.412 570.996 245.98 571.12 245.58C571.243 245.18 571.512 244.841 571.873 244.629C572.237 244.445 572.637 244.346 573.044 244.338C573.451 244.33 573.855 244.413 574.226 244.582C574.634 244.773 575.053 244.94 575.48 245.084C576.337 245.31 577.312 245.107 578.066 245.591C578.384 245.832 578.636 246.149 578.8 246.513C578.964 246.877 579.034 247.276 579.004 247.674C578.939 248.474 578.725 249.255 578.374 249.977C578.21 250.422 577.974 250.837 577.675 251.204C577.529 251.384 577.341 251.525 577.128 251.617C576.915 251.709 576.684 251.748 576.453 251.731L576.815 251.808Z" fill="#2F2E41"/>
<path d="M579.618 248.675C580.994 248.675 582.109 247.56 582.109 246.184C582.109 244.809 580.994 243.693 579.618 243.693C578.243 243.693 577.127 244.809 577.127 246.184C577.127 247.56 578.243 248.675 579.618 248.675Z" fill="#2F2E41"/>
<path d="M575.508 249.796C575.508 249.751 575.52 249.706 575.544 249.668C575.567 249.629 575.6 249.597 575.64 249.576C575.68 249.555 575.725 249.545 575.77 249.547C575.815 249.549 575.859 249.564 575.896 249.589C575.934 249.614 575.964 249.649 575.983 249.69C576.002 249.731 576.01 249.777 576.005 249.822C576 249.867 575.984 249.909 575.956 249.946C575.929 249.982 575.893 250.01 575.851 250.027V250.574C575.851 250.587 575.849 250.599 575.844 250.61C575.839 250.622 575.832 250.632 575.824 250.641C575.815 250.65 575.805 250.657 575.793 250.661C575.782 250.666 575.77 250.669 575.757 250.669C575.745 250.669 575.733 250.666 575.721 250.661C575.71 250.657 575.7 250.65 575.691 250.641C575.682 250.632 575.675 250.622 575.671 250.61C575.666 250.599 575.664 250.587 575.664 250.574V250.027C575.618 250.008 575.579 249.976 575.551 249.935C575.523 249.894 575.508 249.846 575.508 249.796Z" fill="white"/>
<path d="M567.742 258.664C567.924 258.645 568.108 258.667 568.281 258.728C568.454 258.789 568.611 258.887 568.742 259.015C568.873 259.143 568.974 259.298 569.039 259.469C569.103 259.641 569.129 259.824 569.115 260.007L573.194 261.786L571.255 263.046L567.679 261.164C567.374 261.12 567.095 260.965 566.896 260.73C566.698 260.494 566.592 260.194 566.6 259.886C566.608 259.577 566.728 259.283 566.939 259.058C567.149 258.832 567.435 258.692 567.742 258.664Z" fill="#FFB8B8"/>
<path d="M574.797 264.711L569.801 262.613C569.732 262.584 569.669 262.542 569.617 262.489C569.565 262.435 569.524 262.372 569.496 262.302C569.469 262.232 569.456 262.158 569.457 262.083C569.459 262.008 569.476 261.935 569.507 261.867L569.978 260.819C570.034 260.695 570.134 260.595 570.258 260.539C570.382 260.483 570.523 260.474 570.653 260.513L574.639 261.731L574.829 256.314C574.837 256.101 574.888 255.891 574.98 255.697C575.072 255.504 575.202 255.332 575.363 255.191C575.525 255.051 575.713 254.945 575.916 254.879C576.12 254.814 576.335 254.792 576.548 254.813C576.883 254.845 577.198 254.984 577.447 255.211C577.696 255.437 577.864 255.738 577.928 256.068C578.371 258.335 577.292 261.951 576.609 263.905C576.516 264.171 576.342 264.402 576.112 264.566C575.882 264.729 575.607 264.818 575.325 264.819C575.144 264.818 574.964 264.782 574.797 264.711Z" fill="#039CD4"/>
<path d="M62.4741 263.429H54.8218V261.106C57.2399 259.423 59.3823 259.57 62.2007 261.243L62.4741 263.429Z" fill="#039CD4"/>
<path d="M53.05 304.691H51.3746L51.124 298.229H53.05V304.691Z" fill="#FFB8B8"/>
<path d="M53.477 306.315L48.0753 306.314V306.246C48.0753 305.97 48.1297 305.697 48.2353 305.442C48.341 305.186 48.4959 304.955 48.6911 304.759C48.8863 304.564 49.1181 304.409 49.3732 304.304C49.6283 304.198 49.9017 304.144 50.1778 304.144L53.4771 304.144L53.477 306.315Z" fill="#2F2E41"/>
<path d="M62.486 304.691H64.1607L64.4112 298.229H62.4853L62.486 304.691Z" fill="#FFB8B8"/>
<path d="M62.0585 304.144L65.3576 304.144C65.6338 304.144 65.9073 304.198 66.1624 304.304C66.4175 304.409 66.6493 304.564 66.8445 304.759C67.0397 304.955 67.1946 305.186 67.3003 305.442C67.4059 305.697 67.4603 305.97 67.4603 306.246V306.314L62.0586 306.315L62.0585 304.144Z" fill="#2F2E41"/>
<path d="M62.5298 303.863C62.39 303.862 62.2545 303.814 62.1455 303.727C62.0364 303.639 61.9602 303.518 61.9294 303.381L57.7771 285.27C57.768 285.224 57.743 285.183 57.7064 285.153C57.6698 285.124 57.624 285.109 57.5771 285.11H57.576C57.529 285.109 57.4831 285.125 57.4465 285.154C57.41 285.184 57.3852 285.226 57.3765 285.272L53.5634 303.261C53.5337 303.399 53.4578 303.522 53.3484 303.611C53.239 303.699 53.1026 303.748 52.9619 303.748H51.1455C51.0617 303.748 50.9787 303.731 50.9018 303.698C50.8248 303.665 50.7555 303.616 50.698 303.555C50.6405 303.494 50.5961 303.422 50.5675 303.343C50.5389 303.265 50.5267 303.181 50.5316 303.097L51.8845 280.297L52.429 280.136L52.4392 280.136L63.1329 280.23L65.4104 303.005C65.4184 303.086 65.4101 303.168 65.386 303.246C65.3619 303.324 65.3226 303.396 65.2702 303.459C65.2178 303.522 65.1535 303.573 65.081 303.611C65.0085 303.648 64.9293 303.671 64.8479 303.677L62.579 303.861C62.5625 303.862 62.5461 303.863 62.5298 303.863Z" fill="#2F2E41"/>
<path d="M58.1137 259.266C59.9673 259.266 61.4699 257.763 61.4699 255.91C61.4699 254.056 59.9673 252.554 58.1137 252.554C56.2602 252.554 54.7575 254.056 54.7575 255.91C54.7575 257.763 56.2602 259.266 58.1137 259.266Z" fill="#FFB8B8"/>
<path d="M56.0577 282.797C55.4689 282.804 54.8824 282.722 54.3185 282.552C53.817 282.401 53.3517 282.148 52.9513 281.811C52.5509 281.473 52.2238 281.057 51.9903 280.588C51.9163 280.447 51.8999 280.282 51.9445 280.129C52.3146 278.866 54.1033 272.299 52.9621 267.079C52.801 266.354 52.7876 265.604 52.9227 264.873C53.0578 264.143 53.3387 263.447 53.7485 262.827C54.1488 262.213 54.6688 261.685 55.2775 261.276C55.8862 260.866 56.5711 260.584 57.2914 260.445C57.4807 260.408 57.671 260.377 57.857 260.354C58.6532 260.256 59.4612 260.335 60.2232 260.586C60.9852 260.837 61.6824 261.253 62.2649 261.805C62.8647 262.367 63.3327 263.055 63.6354 263.819C63.9382 264.584 64.0682 265.406 64.0161 266.226L63.1391 280.302C63.133 280.407 63.0996 280.509 63.0422 280.598C62.9847 280.687 62.9052 280.759 62.8114 280.808C61.8012 281.337 58.7667 282.797 56.0577 282.797Z" fill="#3F3D56"/>
<path d="M61.9052 253.439C61.5565 252.563 60.9179 251.833 60.0959 251.371C59.274 250.909 58.3184 250.742 57.3886 250.9L58.4468 251.755C57.132 251.799 55.7481 251.705 54.8094 252.627C55.1082 252.618 55.4999 253.257 55.7988 253.249C55.5191 253.269 55.2498 253.363 55.019 253.522C54.7882 253.682 54.6043 253.9 54.4865 254.154C54.258 254.669 54.2045 255.245 54.3343 255.794C54.673 256.6 55.0668 257.383 55.5131 258.136C55.4741 256.801 58.1024 253.616 59.3859 253.949C58.7338 254.191 58.168 254.62 57.7597 255.183C58.6329 254.743 59.6204 254.581 60.5885 254.72C60.8095 254.771 61.0376 254.784 61.2629 254.758C61.401 254.731 61.5297 254.669 61.6369 254.577C61.7441 254.486 61.826 254.369 61.875 254.237C61.924 254.105 61.9383 253.963 61.9166 253.823C61.8948 253.684 61.8378 253.553 61.751 253.442L61.9052 253.439Z" fill="#2F2E41"/>
<path d="M55.8265 281.952C55.7417 281.952 55.6579 281.934 55.5803 281.9L49.2124 279.12C49.0772 279.062 48.9674 278.957 48.9033 278.825C48.8392 278.692 48.8251 278.541 48.8636 278.399L53.0791 262.475C53.1575 262.178 53.2942 261.9 53.4812 261.658C53.6682 261.415 53.9018 261.212 54.1682 261.06C54.4347 260.909 54.7287 260.812 55.033 260.776C55.3373 260.739 55.6459 260.764 55.9406 260.848L57.6262 261.329L56.4396 281.373C56.4335 281.471 56.4036 281.567 56.3526 281.652C56.3015 281.737 56.2308 281.809 56.1463 281.86C56.0502 281.92 55.9395 281.951 55.8265 281.952Z" fill="#039CD4"/>
<path d="M67.612 278.399L67.3318 277.343L66.926 275.807L66.7306 275.07L66.3248 273.538L63.3964 262.474C63.3183 262.178 63.1818 261.9 62.9948 261.657C62.8079 261.414 62.5743 261.211 62.3077 261.059C62.0412 260.908 61.7471 260.811 61.4427 260.775C61.1383 260.738 60.8297 260.763 60.535 260.848L58.8502 261.329L59.6851 275.427L59.7712 276.899L59.8258 277.826V277.828L59.9133 279.291L60.0363 281.372C60.0463 281.529 60.1152 281.675 60.229 281.783C60.3429 281.89 60.4932 281.951 60.6498 281.952C60.7345 281.951 60.8182 281.934 60.8958 281.9L67.2635 279.12C67.3989 279.062 67.5087 278.957 67.5727 278.825C67.6368 278.692 67.6507 278.541 67.612 278.399Z" fill="#039CD4"/>
<path d="M66.7306 275.071L59.771 276.899L59.6848 275.427L66.3247 273.538L66.7306 275.071Z" fill="#CCCCCC"/>
<path d="M67.3318 277.343L59.9132 279.292L59.8255 277.828V277.826L66.9259 275.807L67.3318 277.343Z" fill="#CCCCCC"/>
<path d="M56.7052 275.744L56.619 277.188L49.7934 275.155L50.1935 273.643L56.7052 275.744Z" fill="#CCCCCC"/>
<path d="M56.563 278.139L49.5982 275.891L49.1974 277.407L56.4783 279.575L56.563 278.139Z" fill="#CCCCCC"/>
<path d="M49.7192 279.65C49.9269 279.596 50.1201 279.497 50.2853 279.36C50.4505 279.223 50.5837 279.051 50.6755 278.857C50.7672 278.663 50.8154 278.451 50.8164 278.237C50.8175 278.022 50.7715 277.81 50.6817 277.615L53.956 267.336L51.6342 266.849L48.6322 276.928C48.3148 277.1 48.0717 277.383 47.949 277.723C47.8264 278.063 47.8326 278.436 47.9666 278.771C48.1006 279.107 48.353 279.382 48.676 279.544C48.999 279.705 49.3702 279.743 49.7192 279.65Z" fill="#FFB8B8"/>
<path d="M54.0469 262.282C54.7136 262.35 55.0886 263.1 54.9228 264.033L54.1274 268.512C54.0678 268.848 53.7914 269.114 53.5618 269.056L50.8711 268.384C50.6641 268.332 50.5879 268.038 50.7052 267.744L52.3204 263.692C52.4297 263.308 52.6538 262.968 52.9625 262.716C53.2711 262.464 53.6496 262.313 54.0469 262.282Z" fill="#3F3D56"/>
<path d="M58.1013 249.628C59.2372 249.628 60.3285 250.07 61.144 250.861C61.9595 251.652 62.4353 252.729 62.4706 253.864H63.2939C63.3664 253.864 63.4359 253.893 63.4872 253.944C63.5384 253.995 63.5672 254.065 63.5672 254.137V255.23C63.5672 255.303 63.5384 255.372 63.4872 255.424C63.4359 255.475 63.3664 255.504 63.2939 255.504H54.0019C53.9295 255.504 53.8599 255.475 53.8087 255.424C53.7574 255.372 53.7286 255.303 53.7286 255.23V254.001C53.7286 253.426 53.8417 252.858 54.0615 252.327C54.2812 251.797 54.6033 251.315 55.0094 250.909C55.4154 250.503 55.8974 250.181 56.428 249.961C56.9585 249.741 57.5271 249.628 58.1013 249.628Z" fill="#039CD4"/>
<path d="M58.6238 276.657H56.6922C56.6303 276.658 56.5705 276.635 56.5245 276.593C56.4786 276.551 56.45 276.494 56.4441 276.432L56.0575 272.469H59.2586L58.872 276.432C58.8662 276.494 58.8375 276.551 58.7916 276.593C58.7457 276.635 58.6858 276.658 58.6238 276.657Z" fill="#E6E6E6"/>
<path d="M59.2535 272.968H56.0626C55.9965 272.968 55.9332 272.942 55.8864 272.895C55.8397 272.848 55.8134 272.785 55.8133 272.719V272.12C55.8134 272.054 55.8397 271.991 55.8864 271.944C55.9332 271.897 55.9965 271.871 56.0626 271.871H59.2535C59.3196 271.871 59.3829 271.897 59.4297 271.944C59.4764 271.991 59.5027 272.054 59.5028 272.12V272.719C59.5027 272.785 59.4764 272.848 59.4297 272.895C59.3829 272.942 59.3196 272.968 59.2535 272.968Z" fill="#CCCCCC"/>
<path d="M57.6995 274.532C57.7746 274.541 57.8489 274.555 57.9218 274.576L63.066 270.164L62.7653 268.546L65.1488 267.772L65.9596 270.586C66.0251 270.814 66.0151 271.056 65.9311 271.277C65.8471 271.498 65.6936 271.686 65.4937 271.813L58.9787 275.935C58.9833 276.227 58.8992 276.512 58.7374 276.755C58.5757 276.997 58.344 277.184 58.0733 277.291C57.8025 277.399 57.5054 277.421 57.2216 277.356C56.9378 277.29 56.6807 277.14 56.4845 276.924C56.2882 276.709 56.1622 276.439 56.1231 276.151C56.084 275.862 56.1337 275.568 56.2656 275.309C56.3975 275.049 56.6054 274.835 56.8615 274.697C57.1177 274.558 57.4099 274.501 57.6995 274.532Z" fill="#FFB8B8"/>
<path d="M63.0793 262.652C63.7915 262.453 64.5031 262.995 64.7415 263.918L65.8858 268.35C65.9715 268.682 65.8049 269.035 65.5447 269.073L62.4966 269.511C62.262 269.545 62.0554 269.304 62.0468 268.987L61.9284 264.627C61.8831 264.218 61.9706 263.805 62.1778 263.449C62.385 263.094 62.7011 262.814 63.0793 262.652Z" fill="#3F3D56"/>
<path d="M97.7269 274.641H95.4062C95.3318 274.641 95.2599 274.614 95.2047 274.564C95.1496 274.514 95.1151 274.445 95.1081 274.371L94.6436 269.609H98.4895L98.025 274.371C98.018 274.445 97.9836 274.514 97.9284 274.564C97.8733 274.614 97.8014 274.641 97.7269 274.641Z" fill="#E6E6E6"/>
<path d="M98.4834 270.208H94.6498C94.5704 270.208 94.4942 270.177 94.4381 270.121C94.3819 270.064 94.3504 269.988 94.3503 269.909V269.19C94.3504 269.111 94.3819 269.035 94.4381 268.978C94.4942 268.922 94.5704 268.891 94.6498 268.891H98.4834C98.5628 268.891 98.639 268.922 98.6951 268.978C98.7512 269.035 98.7828 269.111 98.7829 269.19V269.909C98.7828 269.988 98.7512 270.064 98.6951 270.121C98.639 270.177 98.5628 270.208 98.4834 270.208Z" fill="#CCCCCC"/>
<path d="M120.527 302.602C118.841 300.359 117.508 297.872 116.574 295.226C116.52 295.067 116.524 294.895 116.585 294.739C116.646 294.583 116.761 294.454 116.908 294.375L122.678 291.284C122.771 291.233 122.875 291.205 122.981 291.2C123.087 291.196 123.192 291.216 123.289 291.259C123.388 291.302 123.476 291.367 123.546 291.449C123.616 291.531 123.667 291.628 123.693 291.732C124.365 294.282 125.627 296.638 127.378 298.61C127.45 298.69 127.503 298.785 127.533 298.889C127.562 298.993 127.568 299.102 127.549 299.208C127.531 299.313 127.489 299.412 127.426 299.497C127.364 299.583 127.283 299.654 127.189 299.704L121.42 302.795C121.272 302.874 121.101 302.898 120.938 302.862C120.774 302.827 120.629 302.735 120.527 302.602Z" fill="#CCCCCC"/>
<path d="M120.921 302.306C120.952 302.345 120.995 302.372 121.044 302.382C121.092 302.392 121.143 302.385 121.187 302.361L126.957 299.27C126.985 299.255 127.009 299.234 127.028 299.208C127.046 299.183 127.059 299.153 127.064 299.122C127.07 299.089 127.068 299.056 127.059 299.023C127.05 298.991 127.033 298.962 127.011 298.937C125.208 296.908 123.908 294.482 123.217 291.857C123.209 291.825 123.194 291.795 123.172 291.769C123.15 291.744 123.123 291.723 123.093 291.71C123.064 291.697 123.032 291.691 123.001 291.693C122.969 291.694 122.938 291.702 122.91 291.718L117.14 294.809C117.097 294.833 117.063 294.871 117.044 294.917C117.026 294.963 117.024 295.014 117.039 295.062C117.955 297.66 119.265 300.104 120.921 302.306Z" fill="white"/>
<path d="M123.057 295.696L119.914 297.083C119.794 297.136 119.659 297.139 119.537 297.091C119.415 297.044 119.317 296.951 119.265 296.831L119.187 296.655C119.134 296.536 119.131 296.4 119.178 296.278C119.226 296.157 119.319 296.059 119.438 296.006L122.581 294.619C122.701 294.566 122.836 294.563 122.958 294.61C123.08 294.657 123.178 294.751 123.23 294.87L123.308 295.046C123.361 295.166 123.364 295.301 123.317 295.423C123.269 295.545 123.176 295.643 123.057 295.696Z" fill="#CCCCCC"/>
<path d="M124.206 297.83L121.063 299.217C120.944 299.27 120.808 299.273 120.686 299.226C120.565 299.179 120.467 299.085 120.414 298.966L120.336 298.79C120.283 298.67 120.28 298.534 120.328 298.413C120.375 298.291 120.468 298.193 120.588 298.14L123.73 296.753C123.85 296.7 123.985 296.697 124.107 296.744C124.229 296.792 124.327 296.885 124.38 297.005L124.457 297.181C124.51 297.3 124.513 297.436 124.466 297.557C124.419 297.679 124.325 297.777 124.206 297.83Z" fill="#CCCCCC"/>
<path d="M116.835 296.052C116.619 295.912 116.435 295.727 116.298 295.509C116.16 295.291 116.072 295.045 116.04 294.789C116.008 294.533 116.032 294.274 116.111 294.028C116.19 293.783 116.321 293.558 116.497 293.369L115.172 274.561L118.989 274.932L119.094 293.35C119.392 293.665 119.564 294.079 119.577 294.513C119.59 294.947 119.443 295.371 119.165 295.704C118.887 296.037 118.496 296.256 118.066 296.32C117.637 296.384 117.199 296.289 116.835 296.052Z" fill="#A0616A"/>
<path d="M116.036 280.881C115.946 280.817 115.873 280.733 115.82 280.636C115.767 280.54 115.736 280.432 115.731 280.323L115.451 275.253C115.423 274.751 115.582 274.257 115.898 273.865C116.213 273.473 116.663 273.212 117.159 273.132C117.656 273.052 118.164 273.158 118.587 273.431C119.01 273.704 119.316 274.123 119.448 274.609L120.677 279.141C120.728 279.33 120.702 279.531 120.604 279.701C120.507 279.871 120.346 279.996 120.157 280.047L116.662 280.995C116.555 281.024 116.444 281.029 116.336 281.009C116.227 280.989 116.125 280.945 116.036 280.881Z" fill="#3F3D56"/>
<path d="M109.529 319.174L107.517 319.173L106.559 311.41H109.53L109.529 319.174Z" fill="#A0616A"/>
<path d="M105.629 318.598H109.961V321.042H103.635V320.593C103.635 320.331 103.687 320.072 103.787 319.83C103.887 319.588 104.034 319.368 104.219 319.182C104.404 318.997 104.624 318.85 104.866 318.75C105.108 318.65 105.368 318.598 105.629 318.598Z" fill="#2F2E41"/>
<path d="M117.081 319.174L115.069 319.173L114.111 311.41H117.082L117.081 319.174Z" fill="#A0616A"/>
<path d="M113.181 318.598H117.513V321.042H111.187V320.593C111.187 320.331 111.238 320.072 111.339 319.83C111.439 319.588 111.586 319.368 111.771 319.182C111.956 318.997 112.176 318.85 112.418 318.75C112.66 318.65 112.92 318.598 113.181 318.598Z" fill="#2F2E41"/>
<path d="M109.434 315.263L107.219 315.157C107.03 315.148 106.852 315.067 106.721 314.931C106.59 314.794 106.516 314.613 106.515 314.424C105.931 305.408 105.122 295.74 106.36 292.005C106.36 291.899 106.382 291.794 106.426 291.696C106.469 291.599 106.533 291.513 106.614 291.443C106.694 291.373 106.788 291.321 106.89 291.291C106.992 291.261 107.1 291.254 107.205 291.269L116.069 292.556C116.245 292.58 116.405 292.667 116.521 292.8C116.637 292.934 116.702 293.104 116.702 293.281C117.834 297.703 117.885 305.723 117.842 314.055C117.843 314.152 117.824 314.249 117.788 314.339C117.751 314.429 117.696 314.512 117.628 314.581C117.559 314.65 117.477 314.705 117.387 314.742C117.297 314.78 117.201 314.799 117.103 314.799H114.715C114.538 314.8 114.368 314.737 114.234 314.623C114.1 314.508 114.012 314.349 113.985 314.175L112.511 304.806C112.49 304.669 112.419 304.545 112.313 304.455C112.207 304.366 112.072 304.318 111.933 304.321C111.794 304.323 111.661 304.376 111.558 304.469C111.455 304.562 111.389 304.689 111.373 304.827L110.203 314.612C110.181 314.792 110.094 314.957 109.959 315.077C109.824 315.196 109.65 315.263 109.469 315.263C109.458 315.263 109.446 315.263 109.434 315.263Z" fill="#2F2E41"/>
<path d="M110.994 293.282C109.7 292.522 108.266 292.031 106.778 291.838C106.68 291.829 106.585 291.799 106.499 291.752C106.413 291.705 106.337 291.641 106.277 291.563C106.215 291.486 106.169 291.396 106.143 291.3C106.117 291.204 106.11 291.104 106.124 291.005L108.248 275.236C108.37 274.314 108.727 273.438 109.283 272.692C109.839 271.946 110.577 271.355 111.427 270.975C112.249 270.597 113.154 270.435 114.057 270.506C114.959 270.577 115.828 270.877 116.581 271.379C116.654 271.427 116.725 271.477 116.795 271.527C117.663 272.163 118.323 273.041 118.692 274.051C119.061 275.061 119.123 276.158 118.87 277.203C117.568 282.531 117.12 291.266 117.044 292.963C117.038 293.108 116.989 293.248 116.904 293.365C116.818 293.482 116.7 293.571 116.565 293.621C115.763 293.912 114.918 294.063 114.065 294.066C112.991 294.072 111.934 293.802 110.994 293.282Z" fill="#3F3D56"/>
<path d="M112.771 268.834C114.998 268.834 116.803 267.028 116.803 264.801C116.803 262.574 114.998 260.769 112.771 260.769C110.544 260.769 108.738 262.574 108.738 264.801C108.738 267.028 110.544 268.834 112.771 268.834Z" fill="#A0616A"/>
<path d="M115.624 267.991C115.456 268.173 115.239 268.303 114.999 268.366C114.759 268.429 114.506 268.422 114.27 268.346C114.034 268.27 113.825 268.128 113.666 267.937C113.508 267.746 113.408 267.514 113.377 267.268C113.369 267.183 113.37 267.097 113.379 267.013C113.525 266.546 113.614 266.064 113.642 265.575C113.627 265.448 113.58 265.327 113.504 265.223C112.905 264.42 111.498 265.582 110.932 264.855C110.585 264.409 110.993 263.708 110.727 263.21C110.375 262.553 109.335 262.877 108.682 262.517C107.956 262.116 107.999 261.002 108.477 260.325C108.788 259.924 109.184 259.598 109.636 259.367C110.088 259.137 110.585 259.01 111.092 258.994C112.106 258.97 113.114 259.167 114.045 259.57C115.145 259.928 116.116 260.601 116.836 261.506C117.209 262.099 117.446 262.767 117.528 263.463C117.611 264.159 117.538 264.864 117.314 265.528C116.92 266.453 116.345 267.291 115.624 267.991Z" fill="#2F2E41"/>
<path d="M118.817 271.912C118.747 271.58 118.141 271.127 117.274 270.758C115.881 270.193 114.374 269.966 112.876 270.094C111.378 270.223 109.932 270.703 108.655 271.496C108.566 271.501 108.481 271.535 108.413 271.593C108.345 271.651 108.298 271.729 108.279 271.817L105.363 284.712L104.984 286.392L104.733 287.503L104.354 289.178L104.152 290.073C104.139 290.13 104.138 290.189 104.15 290.246C104.162 290.304 104.186 290.358 104.221 290.406C104.255 290.453 104.299 290.492 104.35 290.521C104.401 290.55 104.458 290.568 104.516 290.573L117.107 291.66C117.118 291.66 117.131 291.662 117.143 291.662C117.247 291.661 117.346 291.621 117.422 291.55C117.498 291.479 117.543 291.381 117.55 291.278L117.67 289.454L117.798 287.503L117.854 286.658L117.98 284.712L118.819 271.933V271.922L118.817 271.912Z" fill="#039CD4"/>
<path d="M98.1587 272.724C98.1789 272.812 98.192 272.902 98.198 272.993L105.25 277.061L106.965 276.075L108.792 278.467L105.125 281.081L97.0791 274.733C96.751 274.855 96.3937 274.873 96.0546 274.787C95.7156 274.7 95.411 274.512 95.1813 274.248C94.9516 273.984 94.8077 273.657 94.7687 273.309C94.7298 272.961 94.7976 272.61 94.9632 272.302C95.1288 271.994 95.3842 271.743 95.6957 271.583C96.0071 271.424 96.3597 271.363 96.7066 271.409C97.0535 271.455 97.3782 271.605 97.6376 271.84C97.897 272.075 98.0788 272.383 98.1587 272.724Z" fill="#A0616A"/>
<path d="M105.502 276.715C105.491 276.606 105.504 276.495 105.54 276.391C105.577 276.288 105.637 276.193 105.715 276.116L109.304 272.525C109.66 272.17 110.134 271.958 110.637 271.932C111.139 271.905 111.633 272.066 112.024 272.382C112.415 272.699 112.675 273.149 112.754 273.646C112.833 274.142 112.725 274.651 112.451 275.073L109.895 279.012C109.788 279.176 109.62 279.291 109.429 279.332C109.237 279.372 109.037 279.336 108.873 279.229L105.835 277.258C105.742 277.198 105.665 277.118 105.607 277.024C105.549 276.93 105.514 276.825 105.502 276.715Z" fill="#3F3D56"/>
<path d="M117.98 284.712L117.854 286.658L104.984 286.392L105.363 284.712H117.98Z" fill="#CCCCCC"/>
<path d="M117.798 287.503L117.67 289.453L104.354 289.178L104.733 287.503H117.798Z" fill="#CCCCCC"/>
<path d="M112.85 256.967C111.485 256.967 110.174 257.498 109.194 258.448C108.214 259.398 107.643 260.692 107.6 262.056H106.611C106.524 262.056 106.44 262.091 106.379 262.153C106.317 262.214 106.283 262.298 106.283 262.385V263.698C106.283 263.785 106.317 263.869 106.379 263.93C106.44 263.992 106.524 264.026 106.611 264.026H117.775C117.862 264.026 117.945 263.992 118.007 263.93C118.069 263.869 118.103 263.785 118.103 263.698V262.221C118.103 261.531 117.967 260.848 117.703 260.21C117.439 259.573 117.052 258.994 116.564 258.506C116.077 258.018 115.497 257.631 114.86 257.367C114.223 257.103 113.54 256.967 112.85 256.967Z" fill="#039CD4"/>
<path d="M142.417 310.414H141.291C141.284 310.278 139.772 306.73 139.772 306.73L138.858 304.52L138.254 303.046L137.341 300.836L136.294 298.294C136.268 298.179 136.203 298.077 136.111 298.004C136.018 297.93 135.904 297.891 135.786 297.891C135.668 297.891 135.554 297.93 135.462 298.004C135.369 298.077 135.304 298.179 135.278 298.294L134.232 300.836L133.318 303.046L132.714 304.52L131.8 306.73C131.8 306.73 130.288 310.278 130.281 310.414H129.155C128.862 310.414 128.581 310.531 128.373 310.738C128.166 310.945 128.05 311.226 128.05 311.519C128.05 311.812 128.166 312.094 128.373 312.301C128.581 312.508 128.862 312.624 129.155 312.624H142.417C142.71 312.624 142.991 312.508 143.199 312.301C143.406 312.094 143.522 311.812 143.522 311.519C143.522 311.226 143.406 310.945 143.199 310.738C142.991 310.531 142.71 310.414 142.417 310.414Z" fill="#FF6584"/>
<path d="M141.68 329.57H141.244C141.284 329.476 139.345 324.516 139.345 324.516L138.181 321.679L137.4 319.779L136.235 316.942L134.968 313.87C134.933 313.725 134.849 313.596 134.732 313.503C134.614 313.411 134.469 313.361 134.32 313.361C134.17 313.361 134.025 313.411 133.908 313.503C133.79 313.596 133.707 313.725 133.671 313.87L132.404 316.942L131.24 319.779L130.452 321.679L129.288 324.516C129.288 324.516 127.356 329.476 127.396 329.57H126.945C126.651 329.57 126.37 329.687 126.163 329.894C125.956 330.101 125.839 330.383 125.839 330.676C125.839 330.969 125.956 331.25 126.163 331.457C126.37 331.664 126.651 331.781 126.945 331.781H141.68C141.973 331.781 142.255 331.664 142.462 331.457C142.669 331.25 142.785 330.969 142.785 330.676C142.785 330.383 142.669 330.101 142.462 329.894C142.255 329.687 141.973 329.57 141.68 329.57Z" fill="#FF6584"/>
<path d="M138.254 303.046H133.318L134.231 300.836H137.34L138.254 303.046Z" fill="#F2F2F2"/>
<path d="M139.772 306.73H131.8L132.713 304.52H138.858L139.772 306.73Z" fill="#F2F2F2"/>
<path d="M137.399 319.779H131.24L132.404 316.942H136.235L137.399 319.779Z" fill="#F2F2F2"/>
<path d="M139.344 324.516H129.287L130.451 321.68H138.18L139.344 324.516Z" fill="#F2F2F2"/>
<path d="M304.278 268.23C304.391 268.118 304.479 267.982 304.535 267.832C304.59 267.681 304.612 267.521 304.599 267.362C304.586 267.202 304.537 267.047 304.458 266.909C304.379 266.77 304.27 266.65 304.139 266.558L303.586 262.913L301.316 263.628L302.559 266.879C302.419 267.109 302.368 267.383 302.416 267.648C302.463 267.913 302.607 268.151 302.818 268.318C303.03 268.484 303.296 268.567 303.565 268.551C303.834 268.535 304.087 268.421 304.278 268.23Z" fill="#FFB8B8"/>
<path d="M301.938 266.516L300.538 259.975C300.401 259.348 300.428 258.697 300.615 258.084C300.803 257.47 301.144 256.915 301.608 256.472C303.4 254.744 305.705 252.567 306.501 252.003C307.248 251.471 308.151 251.204 309.068 251.245L309.087 251.248L310.292 252.386L307.667 256.707L303.683 259.203L304.126 265.614L301.938 266.516Z" fill="#039CD4"/>
<path d="M306.844 257.627H300.966C300.711 257.627 300.505 257.833 300.505 258.088C300.505 258.342 300.711 258.549 300.966 258.549H306.844C307.098 258.549 307.305 258.342 307.305 258.088C307.305 257.833 307.098 257.627 306.844 257.627Z" fill="#CCCCCC"/>
<path d="M306.844 267.654H300.966C300.711 267.654 300.505 267.86 300.505 268.115C300.505 268.369 300.711 268.576 300.966 268.576H306.844C307.098 268.576 307.305 268.369 307.305 268.115C307.305 267.86 307.098 267.654 306.844 267.654Z" fill="#CCCCCC"/>
<path d="M303.962 292.778C303.905 292.778 303.849 292.757 303.807 292.718C303.764 292.679 303.738 292.625 303.733 292.568L300.794 258.108C300.792 258.078 300.795 258.047 300.804 258.018C300.813 257.989 300.828 257.963 300.847 257.939C300.866 257.916 300.89 257.897 300.917 257.883C300.944 257.869 300.973 257.86 301.004 257.857C301.034 257.855 301.064 257.858 301.093 257.867C301.122 257.876 301.149 257.891 301.172 257.91C301.195 257.93 301.214 257.954 301.228 257.981C301.242 258.008 301.251 258.037 301.254 258.067L303.959 289.905L306.588 258.068C306.59 258.038 306.599 258.008 306.613 257.981C306.626 257.954 306.646 257.93 306.669 257.911C306.692 257.891 306.719 257.876 306.748 257.867C306.777 257.858 306.807 257.854 306.837 257.857C306.868 257.86 306.897 257.868 306.924 257.882C306.951 257.896 306.975 257.915 306.994 257.939C307.014 257.962 307.028 257.989 307.037 258.018C307.047 258.047 307.05 258.077 307.047 258.107L304.192 292.567C304.187 292.625 304.161 292.678 304.118 292.717C304.076 292.756 304.02 292.778 303.962 292.778Z" fill="#CCCCCC"/>
<path d="M310.559 249.866C312.229 249.866 313.583 248.512 313.583 246.842C313.583 245.172 312.229 243.818 310.559 243.818C308.889 243.818 307.535 245.172 307.535 246.842C307.535 248.512 308.889 249.866 310.559 249.866Z" fill="#FFB8B8"/>
<path d="M301.546 291.396L300.108 290.938L301.192 285.173L303.315 285.849L301.546 291.396Z" fill="#FFB8B8"/>
<path d="M301.466 292.672L296.837 291.196L296.875 291.076C297.022 290.616 297.346 290.233 297.775 290.011C298.204 289.789 298.704 289.747 299.164 289.893L302.058 290.816L301.466 292.672Z" fill="#2F2E41"/>
<path d="M312.01 291.366H310.5L309.782 285.544H312.01V291.366Z" fill="#FFB8B8"/>
<path d="M307.647 292.71H312.276V290.993H309.354C308.901 290.993 308.467 291.173 308.147 291.493C307.827 291.813 307.647 292.247 307.647 292.699V292.71Z" fill="#2F2E41"/>
<path d="M311.966 289.477L311.456 289.401C310.816 289.362 310.184 289.244 309.573 289.049C309.448 288.994 309.439 288.162 309.514 283.488C309.57 280.056 309.638 275.785 309.505 273.493C309.499 273.402 309.464 273.316 309.403 273.249C309.343 273.181 309.262 273.136 309.172 273.12C309.083 273.104 308.991 273.119 308.911 273.162C308.831 273.205 308.768 273.274 308.732 273.357C307.583 276.012 305.654 281.953 304.377 285.885C303.933 287.253 303.583 288.333 303.361 288.98C303.318 289.103 303.231 289.205 303.117 289.267C303.003 289.328 302.87 289.345 302.744 289.314C301.693 289.052 301.764 288.94 300.268 288.553C300.138 288.52 300.027 288.438 299.956 288.325C299.886 288.211 299.862 288.075 299.889 287.944C300.16 286.668 305.112 265.978 305.491 264.011C305.504 263.943 305.53 263.879 305.568 263.822C305.605 263.765 305.654 263.716 305.711 263.677C305.768 263.639 305.832 263.613 305.899 263.599C305.966 263.586 306.035 263.586 306.102 263.599C307.217 263.824 307.896 264.062 308.997 264.293C310.186 264.541 311.416 264.798 312.615 265.038C312.734 265.062 312.841 265.128 312.916 265.223C313.251 265.581 313.662 265.857 314.119 266.031C314.433 266.181 313.721 266.168 313.995 266.384C315.102 267.261 313.51 285.065 312.547 289.086C312.516 289.212 312.44 289.322 312.332 289.394C312.225 289.466 312.094 289.496 311.966 289.477Z" fill="#2F2E41"/>
<path d="M311.848 249.488C311.671 248.739 312.564 247.127 312.387 246.378C312.268 245.871 311.075 246.215 310.796 245.775C310.667 245.548 310.484 245.356 310.263 245.216C310.042 245.076 309.791 244.992 309.53 244.971C308.931 244.965 308.342 245.409 307.774 245.217C307.64 245.15 307.52 245.058 307.422 244.944C307.324 244.831 307.249 244.7 307.202 244.557C307.156 244.415 307.137 244.265 307.149 244.115C307.161 243.966 307.202 243.82 307.271 243.687C307.574 243.157 308.046 242.744 308.611 242.512C309.501 241.968 310.566 241.789 311.585 242.012C312.168 242.238 312.702 242.573 313.158 243.001C313.616 243.339 314.018 243.748 314.35 244.21C314.632 244.692 314.785 245.239 314.793 245.798C314.802 246.356 314.667 246.908 314.401 247.399C313.85 248.379 312.972 249.135 311.921 249.533" fill="#2F2E41"/>
<path d="M304.422 266.922C304.749 266.376 305.244 263.822 305.855 259.534C306.271 256.606 306.634 253.632 306.814 252.113C306.828 251.99 306.873 251.872 306.944 251.772C307.016 251.671 307.112 251.59 307.224 251.536C307.341 251.48 307.457 251.427 307.572 251.376C308.957 250.743 310.494 250.518 312.002 250.73C313.51 250.942 314.926 251.581 316.082 252.572L316.096 252.585L316.099 252.603C316.106 252.637 316.731 256.003 315.451 258.277C314.189 260.521 314.175 266.463 314.175 266.522V266.599L314.101 266.578C312.138 266.017 304.556 266.998 304.479 267.008L304.361 267.024L304.422 266.922Z" fill="#039CD4"/>
<path d="M315.833 259.125H309.955C309.701 259.125 309.494 259.331 309.494 259.586C309.494 259.841 309.701 260.047 309.955 260.047H315.833C316.088 260.047 316.294 259.841 316.294 259.586C316.294 259.331 316.088 259.125 315.833 259.125Z" fill="#CCCCCC"/>
<path d="M315.833 269.152H309.955C309.701 269.152 309.494 269.358 309.494 269.613C309.494 269.867 309.701 270.074 309.955 270.074H315.833C316.088 270.074 316.294 269.867 316.294 269.613C316.294 269.358 316.088 269.152 315.833 269.152Z" fill="#CCCCCC"/>
<path d="M312.952 292.893C312.894 292.893 312.839 292.872 312.796 292.833C312.754 292.794 312.727 292.741 312.722 292.683L309.784 259.606C309.779 259.545 309.798 259.485 309.837 259.438C309.876 259.391 309.932 259.362 309.993 259.356C310.054 259.351 310.115 259.37 310.161 259.409C310.208 259.448 310.238 259.505 310.243 259.566L312.949 290.021L315.577 259.566C315.58 259.536 315.588 259.506 315.602 259.479C315.616 259.452 315.635 259.428 315.658 259.409C315.681 259.389 315.708 259.374 315.737 259.365C315.766 259.356 315.797 259.353 315.827 259.355C315.857 259.358 315.886 259.366 315.913 259.38C315.94 259.394 315.964 259.414 315.984 259.437C316.003 259.46 316.018 259.487 316.027 259.516C316.036 259.545 316.039 259.576 316.037 259.606L313.182 292.683C313.177 292.74 313.15 292.794 313.108 292.833C313.065 292.872 313.01 292.893 312.952 292.893Z" fill="#CCCCCC"/>
<path d="M311.054 269.298C311.02 269.142 311.02 268.98 311.055 268.823C311.09 268.667 311.159 268.521 311.257 268.394C311.354 268.267 311.479 268.164 311.621 268.09C311.763 268.017 311.92 267.975 312.079 267.969L314.524 265.21L316.041 267.044L313.231 269.097C313.224 269.367 313.118 269.624 312.934 269.821C312.75 270.017 312.5 270.14 312.231 270.164C311.963 270.189 311.695 270.114 311.478 269.955C311.261 269.795 311.11 269.561 311.054 269.298Z" fill="#FFB8B8"/>
<path d="M312.477 267.377L316.333 262.236L314.345 257.975L314.489 252.922L316.119 252.621L316.137 252.63C316.928 253.093 317.542 253.808 317.88 254.661C318.242 255.566 318.993 258.646 319.56 261.071C319.707 261.695 319.693 262.346 319.517 262.963C319.341 263.58 319.009 264.141 318.554 264.593L313.824 269.323L312.477 267.377Z" fill="#039CD4"/>
<path d="M296.313 291.464L301.589 292.734C301.691 292.761 301.8 292.751 301.896 292.706C301.991 292.662 302.069 292.585 302.114 292.489L306.645 280.44C306.665 280.394 306.676 280.344 306.676 280.294C306.676 280.243 306.666 280.193 306.646 280.147C306.623 280.095 306.59 280.048 306.548 280.009C306.507 279.97 306.458 279.94 306.404 279.921L302.438 278.406C302.375 278.382 302.308 278.372 302.241 278.375C302.174 278.379 302.109 278.397 302.049 278.428C301.997 278.453 301.951 278.49 301.915 278.534C301.878 278.579 301.852 278.631 301.837 278.687L299.037 289.307L298.996 289.309C298.127 289.36 297.301 289.705 296.653 290.286C296.518 290.448 296.419 290.637 296.36 290.839C296.302 291.042 296.286 291.255 296.313 291.464Z" fill="#CCCCCC"/>
<path d="M300.134 284.71L300.11 284.939L304.919 285.448L304.943 285.219L300.134 284.71Z" fill="#B3B3B3"/>
<path d="M299.715 286.609L299.62 286.819L303.49 288.56L303.585 288.35L299.715 286.609Z" fill="#B3B3B3"/>
<path d="M305.45 283.605L300.888 282.094L300.983 281.884L305.544 283.394L305.45 283.605Z" fill="#B3B3B3"/>
<path d="M305.911 282.567L301.349 280.365L301.443 280.154L306.005 282.357L305.911 282.567Z" fill="#B3B3B3"/>
<path d="M299.312 288.413L299.163 288.589L302.452 291.398L302.601 291.223L299.312 288.413Z" fill="#B3B3B3"/>
<path d="M298.378 289.345L298.168 289.44L299.489 292.352L299.699 292.257L298.378 289.345Z" fill="#B3B3B3"/>
<path d="M426.946 269.195C426.751 269.15 426.567 269.062 426.409 268.938C426.252 268.814 426.123 268.657 426.032 268.478C425.941 268.299 425.891 268.103 425.885 267.902C425.878 267.702 425.916 267.502 425.995 267.318L420.934 255.885L423.829 255.156L427.893 266.623C428.194 266.776 428.429 267.035 428.552 267.349C428.675 267.664 428.679 268.013 428.562 268.33C428.445 268.647 428.216 268.91 427.918 269.07C427.621 269.229 427.275 269.274 426.946 269.195Z" fill="#A0616A"/>
<path d="M421.873 259.467C421.793 259.431 421.721 259.378 421.662 259.311C421.604 259.245 421.561 259.167 421.535 259.082L420.651 256.122C420.457 255.712 420.435 255.242 420.588 254.815C420.741 254.389 421.058 254.04 421.468 253.847C421.878 253.654 422.348 253.631 422.774 253.784C423.201 253.937 423.549 254.254 423.743 254.664L425.454 257.248C425.503 257.322 425.535 257.405 425.549 257.492C425.562 257.58 425.557 257.669 425.533 257.754C425.509 257.839 425.467 257.918 425.41 257.986C425.353 258.053 425.282 258.107 425.201 258.145L422.386 259.463C422.306 259.5 422.219 259.52 422.13 259.521C422.042 259.522 421.954 259.503 421.873 259.467Z" fill="#039CD4"/>
<path d="M432.175 257.993L429.071 260.19C429.031 260.219 428.983 260.235 428.934 260.235C428.885 260.235 428.837 260.219 428.797 260.19L427.959 259.56C427.931 259.54 427.908 259.514 427.891 259.483C427.875 259.453 427.866 259.419 427.865 259.384C427.863 259.35 427.869 259.315 427.883 259.284C427.897 259.252 427.917 259.224 427.943 259.201L430.332 257.071C430.363 257.044 430.401 257.025 430.442 257.017C430.483 257.009 430.526 257.012 430.565 257.026L432.119 257.582C432.159 257.597 432.194 257.622 432.221 257.656C432.248 257.689 432.265 257.729 432.27 257.771C432.276 257.813 432.27 257.856 432.253 257.895C432.237 257.934 432.209 257.968 432.175 257.993Z" fill="#3F3D56"/>
<path d="M431.922 257.784C431.93 257.764 431.929 257.741 431.92 257.721C431.911 257.701 431.894 257.685 431.874 257.677L430.474 257.177C430.46 257.172 430.445 257.17 430.43 257.173C430.416 257.176 430.402 257.182 430.391 257.192L428.237 259.113L428.225 259.126C428.219 259.134 428.214 259.144 428.212 259.154C428.209 259.165 428.209 259.175 428.211 259.186C428.212 259.196 428.216 259.206 428.222 259.215C428.227 259.224 428.235 259.232 428.243 259.238L428.998 259.804C429.012 259.815 429.029 259.82 429.047 259.82C429.064 259.82 429.081 259.814 429.095 259.804L431.893 257.823C431.906 257.813 431.916 257.8 431.922 257.784Z" fill="white"/>
<path d="M420.862 290.756H422.428L423.174 284.714H420.862V290.756Z" fill="#A0616A"/>
<path d="M420.462 290.245L423.547 290.244C423.806 290.244 424.061 290.295 424.3 290.394C424.539 290.493 424.755 290.638 424.938 290.82C425.12 291.003 425.265 291.22 425.364 291.458C425.463 291.697 425.514 291.952 425.514 292.21V292.274L420.462 292.275L420.462 290.245Z" fill="#2F2E41"/>
<path d="M415.623 290.756H417.19L417.935 284.714H415.623V290.756Z" fill="#A0616A"/>
<path d="M415.223 290.245L418.308 290.244C418.567 290.244 418.822 290.295 419.061 290.394C419.3 290.493 419.516 290.638 419.699 290.82C419.881 291.003 420.026 291.22 420.125 291.458C420.224 291.697 420.275 291.952 420.275 292.21V292.274L415.223 292.275L415.223 290.245Z" fill="#2F2E41"/>
<path d="M415.291 288.909C415.183 288.786 415.123 288.629 415.121 288.466C414.747 284.624 415.764 264.428 418.111 262.704L418.126 262.69L424.998 261.503L425.125 261.631C425.135 261.809 426.385 279.512 422.935 288.547C422.893 288.654 422.819 288.747 422.723 288.812C422.628 288.877 422.515 288.912 422.399 288.912H421.027C420.948 288.912 420.869 288.896 420.797 288.864C420.724 288.832 420.659 288.786 420.605 288.727C420.551 288.669 420.51 288.6 420.484 288.525C420.458 288.451 420.448 288.371 420.454 288.292L421.565 271.375C421.568 271.326 421.554 271.278 421.523 271.24C421.493 271.202 421.45 271.177 421.402 271.17C421.353 271.163 421.304 271.174 421.265 271.202C421.225 271.23 421.197 271.271 421.186 271.319L418.058 288.489C418.031 288.61 417.966 288.719 417.873 288.8C417.779 288.881 417.662 288.93 417.539 288.94L415.737 289.073C415.723 289.074 415.709 289.075 415.695 289.075C415.544 289.075 415.398 289.015 415.291 288.909Z" fill="#2F2E41"/>
<path d="M424.333 251.147C426.066 251.147 427.471 249.742 427.471 248.009C427.471 246.276 426.066 244.87 424.333 244.87C422.599 244.87 421.194 246.276 421.194 248.009C421.194 249.742 422.599 251.147 424.333 251.147Z" fill="#A0616A"/>
<path d="M416.774 265.452C416.641 265.317 416.565 265.137 416.56 264.948L417.842 258.948C416.82 254.603 418.181 253.789 419.717 252.965L419.707 252.96L420.348 251.224C420.369 251.147 420.406 251.075 420.457 251.014C420.508 250.953 420.573 250.904 420.645 250.87C420.718 250.836 420.796 250.819 420.876 250.82C420.956 250.82 421.035 250.838 421.107 250.873L424.378 252.611C424.525 252.694 424.634 252.831 424.682 252.993C424.737 253.165 424.733 253.351 424.671 253.521L424.429 254.174C425.054 255.009 426.02 258.309 424.998 259.586L425.769 263.845C425.786 264.001 425.747 264.159 425.66 264.29C425.572 264.421 425.441 264.517 425.29 264.561L417.23 265.596C417.199 265.602 417.167 265.605 417.135 265.605C416.999 265.603 416.869 265.548 416.774 265.452Z" fill="#039CD4"/>
<path d="M428.507 258.571C428.456 258.62 428.408 258.672 428.365 258.728L422.043 258.291L421.365 256.909L419.145 257.66L420.108 260.223C420.186 260.43 420.329 260.607 420.515 260.726C420.702 260.845 420.922 260.9 421.142 260.883L428.331 260.338C428.491 260.559 428.713 260.726 428.97 260.818C429.226 260.909 429.505 260.92 429.768 260.85C430.031 260.779 430.266 260.63 430.442 260.422C430.619 260.215 430.728 259.958 430.755 259.687C430.782 259.416 430.725 259.143 430.594 258.905C430.462 258.667 430.26 258.474 430.017 258.353C429.773 258.232 429.497 258.188 429.228 258.227C428.958 258.266 428.707 258.386 428.507 258.571Z" fill="#A0616A"/>
<path d="M421.807 258.313L419.052 259.23C418.973 259.256 418.89 259.265 418.808 259.256C418.726 259.248 418.647 259.221 418.576 259.179C418.505 259.136 418.444 259.079 418.397 259.011C418.35 258.943 418.318 258.866 418.304 258.785L417.802 255.933C417.67 255.531 417.704 255.094 417.894 254.716C418.085 254.339 418.418 254.053 418.82 253.92C419.221 253.788 419.659 253.82 420.037 254.01C420.414 254.2 420.702 254.532 420.835 254.933L422.139 257.508C422.176 257.582 422.197 257.663 422.2 257.745C422.203 257.828 422.189 257.91 422.157 257.986C422.126 258.063 422.078 258.131 422.018 258.188C421.957 258.244 421.886 258.287 421.807 258.313Z" fill="#039CD4"/>
<path d="M422.57 245.531C423.981 245.531 425.125 244.386 425.125 242.975C425.125 241.564 423.981 240.419 422.57 240.419C421.158 240.419 420.014 241.564 420.014 242.975C420.014 244.386 421.158 245.531 422.57 245.531Z" fill="#2F2E41"/>
<path d="M427.304 248.397C427.551 248.446 427.808 248.425 428.043 248.335C428.164 248.267 428.266 248.171 428.342 248.056C428.419 247.941 428.467 247.809 428.483 247.672C428.959 244.508 426.269 244.769 425.95 244.632C425.75 244.514 425.561 244.376 425.388 244.221C424.94 243.972 424.429 243.86 423.918 243.898C423.314 243.842 422.705 243.916 422.132 244.116C421.633 244.35 421.218 244.732 420.945 245.21C420.674 245.687 420.476 246.201 420.356 246.735C420.168 247.34 420.133 247.983 420.256 248.604C420.387 249.068 420.659 249.48 421.035 249.782C421.412 250.083 421.873 250.259 422.354 250.286C422.277 249.914 422.324 249.526 422.489 249.184C422.654 248.842 422.928 248.563 423.267 248.391C423.806 248.126 424.42 248.053 425.007 248.184C425.387 248.261 425.773 248.309 426.161 248.328C426.541 248.342 426.998 248.365 427.304 248.397Z" fill="#2F2E41"/>
<path d="M672.921 291.379C672.923 288.027 674.257 284.813 676.628 282.443C679 280.073 682.215 278.742 685.568 278.742C688.92 278.742 692.136 280.073 694.507 282.443C696.879 284.813 698.212 288.027 698.215 291.379" fill="#F2F2F2"/>
<path d="M685.568 291.379C685.477 291.379 685.39 291.343 685.326 291.279C685.262 291.215 685.226 291.128 685.226 291.038V284.372C685.226 284.282 685.262 284.195 685.326 284.13C685.39 284.066 685.477 284.03 685.568 284.03C685.658 284.03 685.745 284.066 685.809 284.13C685.873 284.195 685.909 284.282 685.909 284.372V291.038C685.909 291.128 685.873 291.215 685.809 291.279C685.745 291.343 685.658 291.379 685.568 291.379Z" fill="#CCCCCC"/>
<path d="M685.567 289.089C685.486 289.089 685.407 289.06 685.345 289.007L681.243 285.486C681.209 285.457 681.18 285.421 681.16 285.381C681.139 285.341 681.126 285.297 681.123 285.252C681.119 285.207 681.124 285.162 681.138 285.119C681.152 285.076 681.175 285.037 681.204 285.002C681.234 284.968 681.269 284.94 681.31 284.92C681.35 284.899 681.394 284.887 681.439 284.884C681.484 284.881 681.529 284.886 681.572 284.901C681.615 284.915 681.654 284.938 681.688 284.967L685.79 288.488C685.843 288.533 685.881 288.594 685.899 288.662C685.916 288.729 685.912 288.801 685.888 288.866C685.864 288.932 685.82 288.988 685.763 289.028C685.705 289.068 685.637 289.089 685.567 289.089Z" fill="#CCCCCC"/>
<path d="M711.887 291.379C711.89 288.027 713.224 284.813 715.595 282.443C717.967 280.073 721.182 278.742 724.535 278.742C727.887 278.742 731.103 280.073 733.474 282.443C735.846 284.813 737.179 288.027 737.182 291.379" fill="#F2F2F2"/>
<path d="M724.535 291.379C724.444 291.379 724.357 291.343 724.293 291.279C724.229 291.215 724.193 291.128 724.193 291.038V284.372C724.193 284.282 724.229 284.195 724.293 284.13C724.357 284.066 724.444 284.03 724.535 284.03C724.625 284.03 724.712 284.066 724.776 284.13C724.84 284.195 724.876 284.282 724.876 284.372V291.038C724.876 291.128 724.84 291.215 724.776 291.279C724.712 291.343 724.625 291.379 724.535 291.379Z" fill="#CCCCCC"/>
<path d="M724.535 289.089C724.453 289.089 724.374 289.06 724.312 289.007L720.21 285.486C720.176 285.457 720.147 285.421 720.127 285.381C720.106 285.341 720.093 285.297 720.09 285.252C720.086 285.207 720.091 285.162 720.105 285.119C720.119 285.076 720.142 285.036 720.171 285.002C720.2 284.968 720.236 284.94 720.277 284.919C720.317 284.899 720.361 284.887 720.406 284.884C720.451 284.88 720.496 284.886 720.539 284.901C720.582 284.915 720.622 284.938 720.656 284.967L724.757 288.488C724.81 288.533 724.848 288.594 724.866 288.662C724.883 288.729 724.88 288.801 724.855 288.866C724.831 288.932 724.787 288.988 724.73 289.028C724.673 289.068 724.604 289.089 724.535 289.089Z" fill="#CCCCCC"/>
</g>
<defs>
<clipPath id="clip0_677_1901">
<rect width="772" height="331.781" fill="white"/>
</clipPath>
</defs>
</svg>
