<svg width="25" height="24" viewBox="0 0 25 24" fill="none" xmlns="http://www.w3.org/2000/svg">
<g opacity="0.3">
<path d="M9.5 22H10.5C13.3284 22 14.7426 22 15.6213 21.1213C16.5 20.2426 16.5 18.8284 16.5 16V8C16.5 5.17157 16.5 3.75736 15.6213 2.87868C14.7426 2 13.3284 2 10.5 2H9.5C6.67157 2 5.25736 2 4.37868 2.87868C3.5 3.75736 3.5 5.17157 3.5 8L3.5 16C3.5 18.8284 3.5 20.2426 4.37868 21.1213C5.25736 22 6.67157 22 9.5 22Z" fill="url(#paint0_linear_677_2086)"/>
<path d="M9.5 22H10.5C13.3284 22 14.7426 22 15.6213 21.1213C16.5 20.2426 16.5 18.8284 16.5 16V8C16.5 5.17157 16.5 3.75736 15.6213 2.87868C14.7426 2 13.3284 2 10.5 2H9.5C6.67157 2 5.25736 2 4.37868 2.87868C3.5 3.75736 3.5 5.17157 3.5 8L3.5 16C3.5 18.8284 3.5 20.2426 4.37868 21.1213C5.25736 22 6.67157 22 9.5 22Z" fill="#212529"/>
</g>
<g opacity="0.3">
<path d="M16.5 16C16.5 17.4543 16.5 18.5347 16.3806 19.3607C16.37 19.4338 16.4261 19.5 16.5 19.5C18.857 19.5 20.0355 19.5 20.7678 18.7678C21.5 18.0355 21.5 16.857 21.5 14.5V9.5C21.5 7.14298 21.5 5.96447 20.7678 5.23223C20.0355 4.5 18.857 4.5 16.5 4.5C16.4261 4.5 16.37 4.56621 16.3806 4.63931C16.5 5.46529 16.5 6.5457 16.5 8V11.25V12.75V16Z" fill="url(#paint1_linear_677_2086)"/>
<path d="M16.5 16C16.5 17.4543 16.5 18.5347 16.3806 19.3607C16.37 19.4338 16.4261 19.5 16.5 19.5C18.857 19.5 20.0355 19.5 20.7678 18.7678C21.5 18.0355 21.5 16.857 21.5 14.5V9.5C21.5 7.14298 21.5 5.96447 20.7678 5.23223C20.0355 4.5 18.857 4.5 16.5 4.5C16.4261 4.5 16.37 4.56621 16.3806 4.63931C16.5 5.46529 16.5 6.5457 16.5 8V11.25V12.75V16Z" fill="#212529"/>
</g>
<path fill-rule="evenodd" clip-rule="evenodd" d="M20.0303 12.5303C20.3232 12.2374 20.3232 11.7626 20.0303 11.4697L18.0303 9.46967C17.7374 9.17678 17.2626 9.17678 16.9697 9.46967C16.6768 9.76256 16.6768 10.2374 16.9697 10.5303C17.2352 10.7959 17.0472 11.25 16.6716 11.25L10.5 11.25C10.0858 11.25 9.75 11.5858 9.75 12C9.75 12.4142 10.0858 12.75 10.5 12.75L16.6716 12.75C17.0472 12.75 17.2352 13.2041 16.9697 13.4697C16.6768 13.7626 16.6768 14.2374 16.9697 14.5303C17.2626 14.8232 17.7374 14.8232 18.0303 14.5303L20.0303 12.5303Z" fill="#212529"/>
<defs>
<linearGradient id="paint0_linear_677_2086" x1="16.5" y1="12" x2="3.5" y2="12" gradientUnits="userSpaceOnUse">
<stop stop-color="#6469FA"/>
<stop offset="1" stop-color="#0181F1"/>
</linearGradient>
<linearGradient id="paint1_linear_677_2086" x1="21.5" y1="12" x2="16.3589" y2="12" gradientUnits="userSpaceOnUse">
<stop stop-color="#6469FA"/>
<stop offset="1" stop-color="#0181F1"/>
</linearGradient>
</defs>
</svg>
